<svg width="25" height="24" viewBox="0 0 25 24" fill="none" xmlns="http://www.w3.org/2000/svg">
<path fill-rule="evenodd" clip-rule="evenodd" d="M9.5354 0.0381148C5.17878 0.589001 1.72267 3.81145 0.865008 8.12228C0.682317 9.04074 0.666744 10.7625 0.832923 11.6703C1.46743 15.1356 3.78981 17.9979 6.9978 19.2685C10.1958 20.5352 13.7333 20.0954 16.5392 18.0822L17.0331 17.7278L20.1344 20.8241C23.4949 24.1789 23.3624 24.0696 23.9364 23.9619C24.2442 23.9041 24.6183 23.53 24.6761 23.2222C24.7838 22.6481 24.8935 22.7811 21.5334 19.4154L18.4323 16.3091L18.6192 16.0693C20.147 14.1087 20.9116 11.4283 20.6431 8.97488C20.1521 4.4903 16.821 0.908037 12.4157 0.127302C11.7474 0.00884443 10.1564 -0.0404402 9.5354 0.0381148ZM9.82016 2.01494C7.95491 2.25242 6.37606 3.02521 5.06088 4.34457C3.88212 5.52715 3.1897 6.79723 2.84033 8.41799C2.68009 9.16132 2.68009 10.8018 2.84033 11.5452C3.1897 13.1659 3.88212 14.436 5.06088 15.6186C6.21688 16.7783 7.52355 17.4902 9.13218 17.837C9.87551 17.9973 11.516 17.9973 12.2594 17.837C13.8801 17.4877 15.1502 16.7952 16.3328 15.6165C17.4925 14.4605 18.2044 13.1538 18.5512 11.5452C18.7115 10.8018 18.7115 9.16132 18.5512 8.41799C18.2015 6.79585 17.5077 5.52371 16.3307 4.3467C15.1745 3.19057 13.9586 2.51585 12.3845 2.15697C11.8623 2.03795 10.3134 1.95214 9.82016 2.01494Z" fill="black"/>
</svg>
