<svg xmlns="http://www.w3.org/2000/svg" width="50" height="50" viewBox="0 0 50 50"><g transform="translate(-1705 -55)"><g transform="translate(1719.551 70)"><path d="M19.62,5.652a7.024,7.024,0,0,0-.447-2.332A4.924,4.924,0,0,0,16.36.507,7.042,7.042,0,0,0,14.029.06C13,.011,12.673,0,10.063,0S7.126.011,6.1.056A7.026,7.026,0,0,0,3.769.5,4.69,4.69,0,0,0,2.064,1.615a4.733,4.733,0,0,0-1.108,1.7A7.043,7.043,0,0,0,.509,5.648C.461,6.677.449,7,.449,9.614s.011,2.937.056,3.962a7.024,7.024,0,0,0,.447,2.332A4.924,4.924,0,0,0,3.765,18.72a7.043,7.043,0,0,0,2.332.447c1.025.045,1.352.056,3.962.056s2.937-.011,3.962-.056a7.023,7.023,0,0,0,2.332-.447,4.917,4.917,0,0,0,2.813-2.813,7.048,7.048,0,0,0,.447-2.332c.045-1.025.056-1.352.056-3.962S19.665,6.677,19.62,5.652ZM17.889,13.5a5.269,5.269,0,0,1-.33,1.784,3.189,3.189,0,0,1-1.825,1.825,5.288,5.288,0,0,1-1.784.33c-1.014.045-1.318.056-3.883.056s-2.873-.011-3.883-.056a5.266,5.266,0,0,1-1.784-.33,2.958,2.958,0,0,1-1.1-.717,2.989,2.989,0,0,1-.717-1.1,5.289,5.289,0,0,1-.33-1.784c-.045-1.014-.056-1.318-.056-3.883s.011-2.873.056-3.883a5.266,5.266,0,0,1,.33-1.784A2.922,2.922,0,0,1,3.3,2.85a2.984,2.984,0,0,1,1.1-.717A5.291,5.291,0,0,1,6.187,1.8c1.014-.045,1.318-.056,3.883-.056s2.873.011,3.883.056a5.269,5.269,0,0,1,1.784.33,2.956,2.956,0,0,1,1.1.717,2.988,2.988,0,0,1,.717,1.1,5.291,5.291,0,0,1,.33,1.784c.045,1.014.056,1.318.056,3.883S17.934,12.486,17.889,13.5Zm0,0" fill="#fff"/><path d="M129.887,124.5a4.938,4.938,0,1,0,4.938,4.938A4.939,4.939,0,0,0,129.887,124.5Zm0,8.142a3.2,3.2,0,1,1,3.2-3.2A3.2,3.2,0,0,1,129.887,132.642Zm0,0" transform="translate(-119.825 -119.825)" fill="#fff"/><path d="M364.755,89.754A1.153,1.153,0,1,1,363.6,88.6,1.153,1.153,0,0,1,364.755,89.754Zm0,0" transform="translate(-348.406 -85.274)" fill="#fff"/></g><g transform="translate(1705 55)" fill="none" stroke="#fff" stroke-width="2"><circle cx="25" cy="25" r="25" stroke="none"/><circle cx="25" cy="25" r="24" fill="none"/></g></g></svg>