<svg xmlns="http://www.w3.org/2000/svg" width="47.172" height="41.46" viewBox="0 0 47.172 41.46"><path d="M15.2,27.641H40.263a1.382,1.382,0,0,0,1.329-1L47.119,7.29a1.382,1.382,0,0,0-1.329-1.762H12.011l-.988-4.446A1.382,1.382,0,0,0,9.674,0H1.382a1.382,1.382,0,0,0,0,2.764H8.566l4.99,22.454a4.146,4.146,0,0,0,1.647,7.95h25.06a1.382,1.382,0,0,0,0-2.764H15.2a1.382,1.382,0,0,1,0-2.764ZM43.958,8.292,39.22,24.876H16.311L12.625,8.292Zm0,0" fill="#0a1e9d"/><path d="M150,364.146A4.146,4.146,0,1,0,154.146,360,4.151,4.151,0,0,0,150,364.146Zm4.146-1.382a1.382,1.382,0,1,1-1.382,1.382A1.384,1.384,0,0,1,154.146,362.764Zm0,0" transform="translate(-136.18 -326.832)" fill="#0a1e9d"/><path d="M362,364.146A4.146,4.146,0,1,0,366.146,360,4.151,4.151,0,0,0,362,364.146Zm4.146-1.382a1.382,1.382,0,1,1-1.382,1.382A1.384,1.384,0,0,1,366.146,362.764Zm0,0" transform="translate(-328.647 -326.832)" fill="#0a1e9d"/></svg>