<svg xmlns="http://www.w3.org/2000/svg" width="45" height="45" viewBox="0 0 45 45"><g transform="translate(0.095 -0.382)"><circle cx="22.5" cy="22.5" r="22.5" transform="translate(-0.095 0.382)" fill="#fff"/><path d="M7.5,5A2.518,2.518,0,0,0,5,7.5v17A2.518,2.518,0,0,0,7.5,27h17A2.518,2.518,0,0,0,27,24.5V7.5A2.518,2.518,0,0,0,24.5,5Zm0,2h17a.489.489,0,0,1,.5.5v17a.489.489,0,0,1-.5.5H7.5a.489.489,0,0,1-.5-.5V7.5A.489.489,0,0,1,7.5,7Zm2.938,1.719a1.719,1.719,0,1,0,1.719,1.719A1.719,1.719,0,0,0,10.438,8.719Zm9.031,4.563a3.084,3.084,0,0,0-2.781,1.531h-.062V13.5H13.813V23H16.75V18.313c0-1.238.246-2.437,1.781-2.437,1.512,0,1.531,1.4,1.531,2.5V23H23V17.781C23,15.227,22.457,13.281,19.469,13.281ZM9,13.5V23h2.969V13.5Z" transform="translate(6.905 7.382)" fill="#0d6721"/></g></svg>