<svg xmlns="http://www.w3.org/2000/svg" width="41.391" height="41.391" viewBox="0 0 41.391 41.391"><path d="M0,41.391,3.56,30.713a20.337,20.337,0,1,1,8.03,7.629Z" fill="#fff"/><path d="M37.465,29.971c-.939-1.775-4.4-3.8-4.4-3.8-.784-.447-1.729-.5-2.176.3a17.939,17.939,0,0,1-1.412,1.544,2.631,2.631,0,0,1-3.741-.371L22.893,24.8l-2.841-2.841a2.631,2.631,0,0,1-.371-3.741A17.939,17.939,0,0,1,21.225,16.8c.8-.447.746-1.392.3-2.176,0,0-2.03-3.463-3.8-4.4a1.945,1.945,0,0,0-2.286.344L14.18,11.825c-3.98,3.98-2.02,8.473,1.96,12.453l3.637,3.637,3.637,3.637c3.98,3.98,8.473,5.94,12.453,1.96l1.255-1.255A1.947,1.947,0,0,0,37.465,29.971Z" transform="translate(-3.436 -2.864)" fill="#0d6721"/></svg>