<svg xmlns="http://www.w3.org/2000/svg" width="50" height="50" viewBox="0 0 50 50"><g transform="translate(-1530 -55)"><path d="M47.145,32.29H44.261V42.857h-4.37V32.29H37.812V28.576h2.079v-2.4a4.1,4.1,0,0,1,4.409-4.41l3.237.014v3.6H45.188a.89.89,0,0,0-.927,1.012v2.186h3.266Z" transform="translate(1513.188 47.237)" fill="#fff"/><g transform="translate(1530 55)" fill="none"><path d="M25,0A25,25,0,1,1,0,25,25,25,0,0,1,25,0Z" stroke="none"/><path d="M 25 2 C 21.89414024353027 2 18.88224029541016 2.607841491699219 16.04798126220703 3.806629180908203 C 13.30939102172852 4.964958190917969 10.84946823120117 6.623619079589844 8.736541748046875 8.736541748046875 C 6.623619079589844 10.84946823120117 4.964958190917969 13.30939102172852 3.806629180908203 16.04798126220703 C 2.607841491699219 18.88224029541016 2 21.89414024353027 2 25 C 2 28.10585975646973 2.607841491699219 31.11775970458984 3.806629180908203 33.95201873779297 C 4.964958190917969 36.69060897827148 6.623619079589844 39.15052795410156 8.736541748046875 41.26345825195313 C 10.84946823120117 43.37638092041016 13.30939102172852 45.03504180908203 16.04798126220703 46.1933708190918 C 18.88224029541016 47.39215850830078 21.89414024353027 48 25 48 C 28.10585975646973 48 31.11775970458984 47.39215850830078 33.95201873779297 46.1933708190918 C 36.69060897827148 45.03504180908203 39.15052795410156 43.37638092041016 41.26345825195313 41.26345825195313 C 43.37638092041016 39.15052795410156 45.03504180908203 36.69060897827148 46.1933708190918 33.95201873779297 C 47.39215850830078 31.11775970458984 48 28.10585975646973 48 25 C 48 21.89414024353027 47.39215850830078 18.88224029541016 46.1933708190918 16.04798126220703 C 45.03504180908203 13.30939102172852 43.37638092041016 10.84946823120117 41.26345825195313 8.736541748046875 C 39.15052795410156 6.623619079589844 36.69060897827148 4.964958190917969 33.95201873779297 3.806629180908203 C 31.11775970458984 2.607841491699219 28.10585975646973 2 25 2 M 25 0 C 38.80712127685547 0 50 11.19287872314453 50 25 C 50 38.80712127685547 38.80712127685547 50 25 50 C 11.19287872314453 50 0 38.80712127685547 0 25 C 0 11.19287872314453 11.19287872314453 0 25 0 Z" stroke="none" fill="#fff"/></g></g></svg>