<svg xmlns="http://www.w3.org/2000/svg" width="45" height="45" viewBox="0 0 45 45"><g transform="translate(0.095 -0.382)"><circle cx="22.5" cy="22.5" r="22.5" transform="translate(-0.095 0.382)" fill="#fff"/><g transform="translate(10.866 10.866)"><path d="M23.622,6.832a8.491,8.491,0,0,0-.54-2.819,5.952,5.952,0,0,0-3.4-3.4,8.513,8.513,0,0,0-2.819-.54C15.619.014,15.225,0,12.07,0S8.52.014,7.281.068a8.493,8.493,0,0,0-2.819.54A5.67,5.67,0,0,0,2.4,1.952,5.721,5.721,0,0,0,1.062,4.008a8.513,8.513,0,0,0-.54,2.819C.463,8.071.449,8.466.449,11.621s.014,3.55.068,4.789a8.49,8.49,0,0,0,.54,2.819,5.951,5.951,0,0,0,3.4,3.4,8.514,8.514,0,0,0,2.819.54c1.239.055,1.634.068,4.789.068s3.55-.013,4.789-.068a8.489,8.489,0,0,0,2.819-.54,5.943,5.943,0,0,0,3.4-3.4,8.519,8.519,0,0,0,.54-2.819c.054-1.239.068-1.634.068-4.789S23.677,8.071,23.622,6.832ZM21.53,16.319a6.369,6.369,0,0,1-.4,2.156,3.855,3.855,0,0,1-2.206,2.206,6.391,6.391,0,0,1-2.156.4c-1.226.055-1.593.068-4.694.068S8.6,21.135,7.381,21.08a6.366,6.366,0,0,1-2.156-.4,3.576,3.576,0,0,1-1.334-.867,3.613,3.613,0,0,1-.867-1.334,6.393,6.393,0,0,1-.4-2.156c-.055-1.226-.068-1.593-.068-4.694s.013-3.473.068-4.694a6.366,6.366,0,0,1,.4-2.156,3.532,3.532,0,0,1,.872-1.335,3.607,3.607,0,0,1,1.334-.867,6.4,6.4,0,0,1,2.156-.4c1.226-.054,1.593-.068,4.694-.068s3.473.014,4.694.068a6.369,6.369,0,0,1,2.156.4,3.573,3.573,0,0,1,1.334.867A3.612,3.612,0,0,1,21.13,4.78a6.4,6.4,0,0,1,.4,2.156c.054,1.226.068,1.593.068,4.694S21.584,15.093,21.53,16.319Zm0,0" transform="translate(-0.449 0)" fill="#0d6721"/><path d="M130.918,124.5a5.969,5.969,0,1,0,5.969,5.969A5.971,5.971,0,0,0,130.918,124.5Zm0,9.841a3.872,3.872,0,1,1,3.872-3.872A3.873,3.873,0,0,1,130.918,134.341Zm0,0" transform="translate(-119.298 -118.849)" fill="#0d6721"/><path d="M365.236,90a1.394,1.394,0,1,1-1.394-1.394A1.394,1.394,0,0,1,365.236,90Zm0,0" transform="translate(-346.017 -84.58)" fill="#0d6721"/></g></g></svg>