<svg xmlns="http://www.w3.org/2000/svg" width="32" height="24" viewBox="0 0 32 24"><g transform="translate(0 -64)"><g transform="translate(0 64)"><path d="M29.333,78.977v-.311a13.316,13.316,0,0,0-5.8-10.986.666.666,0,0,0-1.04.495l-.5,5.992a.682.682,0,0,1-.715.609h0a.666.666,0,0,1-.609-.72l.667-8a.666.666,0,0,0-.664-.722H18.3a2.643,2.643,0,0,0-4.591,0H11.333a.666.666,0,0,0-.664.722l.667,8a.666.666,0,0,1-.155.486.7.7,0,0,1-.51.236.669.669,0,0,1-.663-.611l-.5-5.99a.666.666,0,0,0-1.04-.495,13.314,13.314,0,0,0-5.8,10.986v.311C.874,79.618,0,80.391,0,81.333,0,83.845,7.478,88,16,88s16-4.155,16-6.667C32,80.391,31.126,79.618,29.333,78.977ZM17.333,76A1.335,1.335,0,0,1,16,77.333a1.348,1.348,0,0,1-1.333-1.371v-9.3a1.333,1.333,0,0,1,2.667,0Z" transform="translate(0 -64)" fill="#0d6721"/></g></g></svg>