<svg xmlns="http://www.w3.org/2000/svg" width="174.483" height="40.299" viewBox="0 0 174.483 40.299"><g transform="translate(0)"><g transform="translate(39.145 18.238)"><g transform="translate(0 0.311)"><path d="M76.621,53.715V37.472h3.946V50.3h6.286v3.418H76.621Z" transform="translate(-76.621 -37.472)" fill="#2c3c69"/><path d="M110.432,52.295v.459a4.031,4.031,0,0,1-.023.436h-8.282a1.993,1.993,0,0,0,.287.872,2.5,2.5,0,0,0,.619.677,3.048,3.048,0,0,0,1.824.608,3.164,3.164,0,0,0,1.514-.333,2.991,2.991,0,0,0,1.01-.861L110,55.806a5.289,5.289,0,0,1-2.122,1.8,7.035,7.035,0,0,1-3.063.631,7.324,7.324,0,0,1-2.432-.4,5.9,5.9,0,0,1-2.008-1.17,5.421,5.421,0,0,1-1.353-1.892,6.337,6.337,0,0,1-.493-2.57,6.428,6.428,0,0,1,.481-2.535,5.731,5.731,0,0,1,1.308-1.927,5.813,5.813,0,0,1,1.95-1.228,6.674,6.674,0,0,1,2.431-.436,6.155,6.155,0,0,1,2.317.425,5.051,5.051,0,0,1,1.813,1.227,5.675,5.675,0,0,1,1.181,1.95A7.517,7.517,0,0,1,110.432,52.295Zm-3.464-1.445a2.255,2.255,0,0,0-.562-1.537,2.124,2.124,0,0,0-1.686-.642,2.853,2.853,0,0,0-1.01.172,2.627,2.627,0,0,0-.8.47,2.331,2.331,0,0,0-.55.7,2.047,2.047,0,0,0-.229.837Z" transform="translate(-87.198 -41.627)" fill="#2c3c69"/><path d="M128.028,46.781v4.376a1.967,1.967,0,0,0,.31,1.209,1.324,1.324,0,0,0,1.112.4,3.88,3.88,0,0,0,.585-.046,2,2,0,0,0,.516-.138l.046,2.753a6.3,6.3,0,0,1-.986.241,6.993,6.993,0,0,1-1.193.1,5.62,5.62,0,0,1-1.928-.288,2.972,2.972,0,0,1-1.25-.829,3.238,3.238,0,0,1-.677-1.288,6.239,6.239,0,0,1-.206-1.667V46.781h-1.835v-2.8h1.812V40.977h3.694v3.005h2.684v2.8Z" transform="translate(-98.783 -39.164)" fill="#2c3c69"/><path d="M154.5,49.816a4.209,4.209,0,0,0-1.078-.734,2.979,2.979,0,0,0-1.307-.3,2.3,2.3,0,0,0-.975.206.725.725,0,0,0-.447.711.708.708,0,0,0,.493.688,10.7,10.7,0,0,0,1.594.459,8.673,8.673,0,0,1,1.3.39,4.574,4.574,0,0,1,1.181.665,3.191,3.191,0,0,1,.849,1.01,2.966,2.966,0,0,1,.321,1.422,3.425,3.425,0,0,1-1.572,3.028,4.892,4.892,0,0,1-1.571.665,7.52,7.52,0,0,1-1.743.206,8.614,8.614,0,0,1-2.742-.447,5.75,5.75,0,0,1-2.236-1.319l2.111-2.225a4.187,4.187,0,0,0,1.239.917,3.436,3.436,0,0,0,1.56.367,2.048,2.048,0,0,0,.906-.218.781.781,0,0,0,.447-.768.824.824,0,0,0-.55-.78,9.935,9.935,0,0,0-1.721-.528,8.838,8.838,0,0,1-1.193-.367,3.757,3.757,0,0,1-1.066-.62,3.072,3.072,0,0,1-.769-.963,2.95,2.95,0,0,1-.3-1.376,3.334,3.334,0,0,1,.436-1.755,3.688,3.688,0,0,1,1.124-1.181,5,5,0,0,1,1.525-.677,6.556,6.556,0,0,1,1.664-.218,8.051,8.051,0,0,1,2.511.4,5.43,5.43,0,0,1,2.076,1.2Z" transform="translate(-110.392 -41.626)" fill="#2c3c69"/><path d="M179.568,53.715V37.472h10.92v3.3h-7.134V43.85H190.1v3.143h-6.744v3.372H190.9v3.35Z" transform="translate(-126.326 -37.472)" fill="#2c3c69"/><path d="M213.672,57.913v-6.24a5.129,5.129,0,0,0-.08-.917,2.531,2.531,0,0,0-.264-.769,1.375,1.375,0,0,0-.516-.528,1.643,1.643,0,0,0-.837-.195,1.914,1.914,0,0,0-.883.195,1.8,1.8,0,0,0-.631.539,2.444,2.444,0,0,0-.378.791,3.4,3.4,0,0,0-.126.929v6.194H206.17V46.488h3.648v1.583h.046a3.76,3.76,0,0,1,.539-.722,3.224,3.224,0,0,1,.78-.608,4.86,4.86,0,0,1,.975-.413,3.856,3.856,0,0,1,1.124-.161,4.227,4.227,0,0,1,1.95.413,3.731,3.731,0,0,1,1.3,1.066,4.2,4.2,0,0,1,.711,1.5,6.83,6.83,0,0,1,.218,1.7v7.066h-3.786Z" transform="translate(-139.171 -41.67)" fill="#2c3c69"/><path d="M238.809,50.138a2.3,2.3,0,0,0-.872-.665,2.678,2.678,0,0,0-1.124-.252,2.373,2.373,0,0,0-1.078.241,2.635,2.635,0,0,0-.826.642,3.032,3.032,0,0,0-.539.929,3.222,3.222,0,0,0-.195,1.124,3.389,3.389,0,0,0,.184,1.124,2.729,2.729,0,0,0,.539.929,2.552,2.552,0,0,0,.849.631,2.606,2.606,0,0,0,1.112.229,3.117,3.117,0,0,0,1.135-.218,2.177,2.177,0,0,0,.906-.631l2.088,2.547a4.915,4.915,0,0,1-1.835,1.078,7.237,7.237,0,0,1-2.386.39,7.567,7.567,0,0,1-2.527-.413,5.866,5.866,0,0,1-2.038-1.2,5.652,5.652,0,0,1-1.362-1.915,6.727,6.727,0,0,1,0-5.07,5.659,5.659,0,0,1,1.362-1.916,6.01,6.01,0,0,1,2.038-1.216,7.31,7.31,0,0,1,2.5-.425,6.559,6.559,0,0,1,1.227.115,8.192,8.192,0,0,1,1.17.31,5.3,5.3,0,0,1,1.032.482,4.333,4.333,0,0,1,.815.631Z" transform="translate(-150.842 -41.627)" fill="#2c3c69"/><path d="M261.114,49.585a2.95,2.95,0,0,0-.493-.092c-.16-.016-.318-.023-.47-.023a2.691,2.691,0,0,0-1.273.275,2.594,2.594,0,0,0-.826.664,2.507,2.507,0,0,0-.447.847,2.839,2.839,0,0,0-.138.8v5.857H253.7V46.5h3.625v1.652h.046a3.72,3.72,0,0,1,1.239-1.433,3.187,3.187,0,0,1,1.858-.554,4.36,4.36,0,0,1,.447.023,1.722,1.722,0,0,1,.356.069Z" transform="translate(-162.121 -41.67)" fill="#2c3c69"/><path d="M277.712,59.934a9.963,9.963,0,0,1-.768,1.594,4.819,4.819,0,0,1-1.009,1.193,3.993,3.993,0,0,1-1.377.745,6.185,6.185,0,0,1-1.87.252,8.918,8.918,0,0,1-1.089-.069,6.816,6.816,0,0,1-.975-.183l.413-3.166a4.223,4.223,0,0,0,.608.149,3.641,3.641,0,0,0,.608.057,1.7,1.7,0,0,0,1.262-.4,3.26,3.26,0,0,0,.665-1.135l.367-.94-4.772-11.241h4.175L276.5,54.13h.069l2.271-7.341h3.992Z" transform="translate(-169.881 -41.97)" fill="#2c3c69"/><path d="M309.631,52.155a7.208,7.208,0,0,1-.367,2.294,5.909,5.909,0,0,1-1.066,1.938,5.271,5.271,0,0,1-1.709,1.343,5.074,5.074,0,0,1-2.295.5,4.8,4.8,0,0,1-2-.424,3.566,3.566,0,0,1-1.468-1.158h-.045V63.42h-3.762V46.488H300.5v1.4h.069a4.645,4.645,0,0,1,1.457-1.2,4.441,4.441,0,0,1,2.191-.516,5.154,5.154,0,0,1,2.248.482,5.085,5.085,0,0,1,1.709,1.307,5.945,5.945,0,0,1,1.078,1.916A6.91,6.91,0,0,1,309.631,52.155Zm-3.648,0a3.455,3.455,0,0,0-.172-1.078,2.808,2.808,0,0,0-.505-.929,2.529,2.529,0,0,0-2.007-.906,2.531,2.531,0,0,0-1.147.252,2.732,2.732,0,0,0-.861.665,3.038,3.038,0,0,0-.55.94,3.079,3.079,0,0,0,0,2.157,3.026,3.026,0,0,0,.55.94,2.734,2.734,0,0,0,.861.666,2.53,2.53,0,0,0,1.147.252,2.586,2.586,0,0,0,1.17-.252,2.485,2.485,0,0,0,.837-.666,2.913,2.913,0,0,0,.505-.952A3.565,3.565,0,0,0,305.983,52.155Z" transform="translate(-182.988 -41.67)" fill="#2c3c69"/><path d="M327.978,46.781v4.376a1.967,1.967,0,0,0,.31,1.209,1.324,1.324,0,0,0,1.112.4,3.879,3.879,0,0,0,.585-.046,2,2,0,0,0,.516-.138l.046,2.753a6.3,6.3,0,0,1-.986.241,6.993,6.993,0,0,1-1.193.1,5.62,5.62,0,0,1-1.927-.288,2.972,2.972,0,0,1-1.25-.829,3.238,3.238,0,0,1-.677-1.288,6.24,6.24,0,0,1-.206-1.667V46.781h-1.835v-2.8h1.812V40.977h3.694v3.005h2.684v2.8Z" transform="translate(-195.324 -39.164)" fill="#2c3c69"/></g><path d="M143.131,36.87a1.917,1.917,0,0,0-2.013,1.853,1.743,1.743,0,0,0,1.853,1.829,1.351,1.351,0,0,0,.268-.026,2.093,2.093,0,0,1-1.7,1.508l-.15.024V43.8l.194-.019a4.123,4.123,0,0,0,2.426-1.116,4.575,4.575,0,0,0,1.29-3.4A2.221,2.221,0,0,0,143.131,36.87Z" transform="translate(-107.762 -36.87)" fill="#2c3c69"/></g><g transform="translate(9.061 9.213)"><path d="M32.951,28.806H28.793V26.671a3.092,3.092,0,0,0-6.185,0v2.135H18.45V26.671a7.251,7.251,0,0,1,14.5,0v2.135Z" transform="translate(-18.45 -19.42)" fill="#f9a11d"/></g><path d="M31.768,37.568H13.913a1.39,1.39,0,0,0-1.386,1.386V52.163a1.39,1.39,0,0,0,1.386,1.386H31.768a1.39,1.39,0,0,0,1.386-1.386V38.954A1.39,1.39,0,0,0,31.768,37.568ZM23.746,46.24v1.79a.9.9,0,1,1-1.809,0V46.241a1.837,1.837,0,1,1,1.809,0Z" transform="translate(-6.529 -18.969)" fill="#2c3c69"/><path d="M6.5,31.4H2.2a1.265,1.265,0,1,1,0-2.53H6.5a1.265,1.265,0,1,1,0,2.53Z" transform="translate(-0.93 -14.769)" fill="#f9a11d"/><path d="M13.213,15.676a1.258,1.258,0,0,1-.8-.288L9,12.586a1.265,1.265,0,0,1,1.607-1.954l3.408,2.8a1.265,1.265,0,0,1-.8,2.242Z" transform="translate(-4.605 -5.825)" fill="#f9a11d"/><path d="M31.288,8.479a1.265,1.265,0,0,1-1.265-1.265V2.871a1.265,1.265,0,0,1,2.53,0V7.214A1.265,1.265,0,0,1,31.288,8.479Z" transform="translate(-14.977 -1.606)" fill="#f9a11d"/><g transform="translate(22.748 4.519)"><path d="M46.181,15.676a1.265,1.265,0,0,1-.8-2.242l3.408-2.8a1.265,1.265,0,0,1,1.607,1.954l-3.408,2.8A1.257,1.257,0,0,1,46.181,15.676Z" transform="translate(-44.915 -10.343)" fill="#f9a11d"/></g><path d="M56.321,31.4H51.972a1.265,1.265,0,0,1,0-2.53h4.349a1.265,1.265,0,0,1,0,2.53Z" transform="translate(-24.964 -14.769)" fill="#f9a11d"/></g></svg>