<svg xmlns="http://www.w3.org/2000/svg" width="28.14" height="17.524" viewBox="0 0 28.14 17.524"><g transform="translate(-187.277 -328.103)"><path d="M193.793,341.366c-.367,0-.543-.284-.35-.6l3.439-5.735,1.742-3.015,0-.013a2.572,2.572,0,0,0-2.171-3.877l0,0h-8.291a.006.006,0,0,0-.005.005v3.546a.735.735,0,0,0,.735.735h4.479l0,.008-5.428,9.227a6.679,6.679,0,0,0-.558,1.2,1.43,1.43,0,0,0-.061.208,2.144,2.144,0,0,0,.045,1.056,1.5,1.5,0,0,0,.15.369,2.14,2.14,0,0,0,1.76,1.152c.044,0,.087.007.13.007h8.134a.577.577,0,0,0,.577-.577v-3.7h-4.326Z" transform="translate(0 -0.016)" fill="#fff"/><path d="M242.072,337.162H239.4a.651.651,0,0,0-.65.651v3.506a.652.652,0,0,1-.635.651l-.136,0a3.469,3.469,0,0,1-2.9-1.239,6.036,6.036,0,0,1-.975-3.765,6.191,6.191,0,0,1,1-3.836,3.377,3.377,0,0,1,2.835-1.286,7.121,7.121,0,0,1,.726.035q.34.036.68.106t.714.189c.06.019.265.126.329.147a.651.651,0,0,0,.83-.444c.181-.656.433-1.589.609-2.224a.692.692,0,0,0-.392-.781,5.906,5.906,0,0,0-1.771-.531,12.411,12.411,0,0,0-2.062-.159,7.861,7.861,0,0,0-3.291.641,6.8,6.8,0,0,0-2.437,1.841,8.259,8.259,0,0,0-1.508,2.8,11.357,11.357,0,0,0-.522,3.505,11.715,11.715,0,0,0,.5,3.494,7.543,7.543,0,0,0,1.508,2.762,6.924,6.924,0,0,0,2.506,1.806,8.719,8.719,0,0,0,3.492.649,7.967,7.967,0,0,0,2.233-.311,7.816,7.816,0,0,0,2.215-.965c.274-.193.426-.338.426-.611v-5.978A.65.65,0,0,0,242.072,337.162Z" transform="translate(-27.306 -0.052)" fill="#fff"/><path d="M218.734,330.765a7.472,7.472,0,0,1-.559,2.379c-.039.108.1.232.165.144a11.5,11.5,0,0,1,1.68-1.893A14.547,14.547,0,0,1,222,329.989c.027-.015.276-.2.3-.218a.932.932,0,0,0,.332-.56c.077-.593.164-1.1-.414-1.1l-4.7-.009a.031.031,0,0,0-.015.058A2.794,2.794,0,0,1,218.734,330.765Z" transform="translate(-19.381)" fill="#fff"/><path d="M224.312,347.863a.757.757,0,0,0-.06-.343c-.049-.092-.147-.215-.288-.417a11.144,11.144,0,0,1-.984-1.63,12.411,12.411,0,0,1-.5-1.345,12.07,12.07,0,0,1-.614-3.455,8.818,8.818,0,0,1,.613-3.547,11.036,11.036,0,0,1,.8-1.449,2.3,2.3,0,0,0,.156-1.042c0-.386,0-.826,0-.867a10.513,10.513,0,0,0-3.527,3.025,7.77,7.77,0,0,0-1.216,4.429v7.459a.579.579,0,0,0,.579.579h4.446a.589.589,0,0,0,.589-.589v-.807Z" transform="translate(-20.157 -3.633)" fill="#fff"/></g></svg>