<svg xmlns="http://www.w3.org/2000/svg" width="44.668" height="42.577" viewBox="0 0 44.668 42.577"><g transform="translate(28.636 32.146)"><path d="M297.568,338.862a5.216,5.216,0,1,0,5.216,5.216A5.277,5.277,0,0,0,297.568,338.862Z" transform="translate(-292.352 -338.862)" fill="#0d6721"/></g><g transform="translate(0 0)"><g transform="translate(0 0)"><path d="M43.029,17.942c-.1,0-.251-.05-.4-.05H11.033l-.5-3.36A4.491,4.491,0,0,0,6.068,10.67H2.006a2.006,2.006,0,0,0,0,4.012H6.068a.533.533,0,0,1,.5.451L9.679,36.3A5.5,5.5,0,0,0,15.1,40.961H35.958a5.573,5.573,0,0,0,5.416-4.413l3.26-16.3A1.982,1.982,0,0,0,43.029,17.942Z" transform="translate(0 -10.67)" fill="#0d6721"/></g></g><g transform="translate(10.879 32.146)"><path d="M121.254,343.827a5.185,5.185,0,0,0-5.165-4.965,5.246,5.246,0,0,0-5.015,5.416,5.14,5.14,0,0,0,5.115,4.965h.1A5.2,5.2,0,0,0,121.254,343.827Z" transform="translate(-111.07 -338.862)" fill="#0d6721"/></g></svg>