<svg width="25" height="28" viewBox="0 0 25 28" fill="none" xmlns="http://www.w3.org/2000/svg">
<path d="M20.6903 21.1168C20.8924 21.1848 21.0503 21.2357 21.1794 21.2748C21.6787 21.431 23.5232 21.9609 23.5232 24.1807V26.9983M4.54724 21.1168C4.34513 21.1848 4.18719 21.2357 4.05811 21.2748C3.55879 21.431 1.71436 21.9609 1.71436 24.1807V26.9983M6.08767 20.5768C6.55132 20.4086 7.10669 20.2048 7.77585 19.9535C7.89643 19.9093 8.00852 19.8583 8.11382 19.804C8.61654 19.5424 8.94773 19.179 9.16512 18.7884V23.9718H16.0724V18.7867M16.0724 18.7884C16.2898 19.179 16.621 19.5424 17.1237 19.804C17.229 19.8583 17.3411 19.9093 17.4617 19.9535C18.1308 20.2048 18.6862 20.4086 19.1498 20.5768M18.6335 10.9996C18.6335 11.3393 18.3771 12.2343 18.2429 12.6725C18.0561 13.2856 17.2596 13.16 17.2596 13.16C16.694 15.7483 14.8309 18.2449 12.6179 18.2449C10.4049 18.2449 8.54181 15.7483 7.97626 13.16C7.97626 13.16 7.17802 13.2856 6.9929 12.6725C6.86042 12.2343 6.60227 11.341 6.60227 10.9996M9.86145 2.5774C8.09854 3.55057 6.90458 5.42727 6.90458 7.58251V8.36036M18.3329 8.36036V7.58251C18.3329 5.42727 17.139 3.55057 15.3761 2.5774M5.63929 9.63414H19.5982M6.08936 20.5768V27M19.1482 27V20.6277M13.7303 5.98264C13.676 6.61953 13.1971 7.10696 12.6247 7.10696C12.054 7.10696 11.5768 6.62462 11.5191 5.98943L11.1488 1.90824C11.1132 1.52441 11.3475 1.17455 11.6855 1.09982C12.2918 0.969043 12.9814 0.967345 13.5537 1.09133C13.8883 1.16436 14.1159 1.51422 14.0819 1.89296L13.7303 5.98434V5.98264Z" stroke="#191919" stroke-width="1.5" stroke-linecap="round" stroke-linejoin="round"/>
</svg>
