<svg xmlns="http://www.w3.org/2000/svg" width="26.621" height="31.908" viewBox="0 0 26.621 31.908"><path d="M94.717,15.37a7.436,7.436,0,0,0,5.434-2.252A7.436,7.436,0,0,0,102.4,7.685a7.437,7.437,0,0,0-2.252-5.434,7.683,7.683,0,0,0-10.868,0,7.436,7.436,0,0,0-2.252,5.434,7.436,7.436,0,0,0,2.252,5.434A7.438,7.438,0,0,0,94.717,15.37Zm0,0" transform="translate(-81.607)" fill="#0d6721"/><path d="M26.557,256.439a18.983,18.983,0,0,0-.259-2.016,15.885,15.885,0,0,0-.5-2.027,10.013,10.013,0,0,0-.833-1.891,7.134,7.134,0,0,0-1.257-1.638,5.541,5.541,0,0,0-1.805-1.134,6.238,6.238,0,0,0-2.3-.417,2.339,2.339,0,0,0-1.249.53c-.374.244-.812.527-1.3.839a7.456,7.456,0,0,1-1.684.742,6.538,6.538,0,0,1-4.119,0,7.437,7.437,0,0,1-1.682-.742c-.484-.309-.922-.592-1.3-.839a2.336,2.336,0,0,0-1.249-.53,6.23,6.23,0,0,0-2.3.417,5.536,5.536,0,0,0-1.805,1.134,7.135,7.135,0,0,0-1.256,1.637A10.033,10.033,0,0,0,.818,252.4a15.923,15.923,0,0,0-.5,2.027,18.915,18.915,0,0,0-.259,2.017c-.042.611-.064,1.244-.064,1.884a5.3,5.3,0,0,0,1.574,4.009,5.665,5.665,0,0,0,4.055,1.479H20.993a5.664,5.664,0,0,0,4.055-1.479,5.3,5.3,0,0,0,1.574-4.009C26.621,257.681,26.6,257.047,26.557,256.439Zm0,0" transform="translate(0 -231.904)" fill="#0d6721"/></svg>