<svg xmlns="http://www.w3.org/2000/svg" width="23.062" height="23.062" viewBox="0 0 23.062 23.062"><path d="M0,23.062l1.983-5.95a11.331,11.331,0,1,1,4.474,4.251Z" fill="#2cb742"/><path d="M26.189,21.128a8.211,8.211,0,0,0-2.453-2.12c-.437-.249-.963-.277-1.212.167a9.995,9.995,0,0,1-.787.86,1.466,1.466,0,0,1-2.084-.207l-1.583-1.583-1.583-1.583a1.466,1.466,0,0,1-.207-2.084,9.995,9.995,0,0,1,.86-.787c.444-.249.416-.776.167-1.212a8.211,8.211,0,0,0-2.12-2.453,1.084,1.084,0,0,0-1.274.192l-.7.7c-2.218,2.218-1.126,4.721,1.092,6.939l2.027,2.027,2.027,2.027c2.218,2.218,4.721,3.309,6.939,1.092l.7-.7A1.085,1.085,0,0,0,26.189,21.128Z" transform="translate(-7.229 -6.024)" fill="#fff"/></svg>